<svg width="606" height="749" viewBox="0 0 606 749" fill="none" xmlns="http://www.w3.org/2000/svg">
<path d="M478.26 54.48V0.47998H126.6V54.48H478.26Z" fill="white"/>
<path d="M303.54 140.67C125.36 140.67 0.5 270.15 0.5 445.03C0.5 619.87 125.32 748.25 303.54 748.25C481.77 748.25 605.5 619.91 605.5 445.03C605.5 270.16 481.73 140.67 303.54 140.67ZM162.16 240.77C194.16 197.3 241.57 176.6 303.54 176.6C365.51 176.6 412.64 197.29 444.37 240.76C476.2 284.36 492.77 351.19 492.77 443.94C492.77 537.24 476.46 603.58 444.78 646.56C413.2 689.4 366.08 709.37 303.53 709.37C240.99 709.37 193.6 689.14 161.74 646.15C129.79 603.03 113.21 536.69 113.21 443.94C113.22 351.2 130.07 284.37 162.16 240.77Z" fill="white"/>
<path d="M304.33 664.58C347.403 664.58 382.32 629.663 382.32 586.59C382.32 543.517 347.403 508.6 304.33 508.6C261.257 508.6 226.34 543.517 226.34 586.59C226.34 629.663 261.257 664.58 304.33 664.58Z" fill="white"/>
</svg>
